<svg width="25" height="24" viewBox="0 0 25 24" fill="none" xmlns="http://www.w3.org/2000/svg">
<rect x="0.5" width="24" height="24" rx="4" fill="#140E33"/>
<path d="M19.6869 8.5424C19.5997 8.24525 19.4337 7.97461 19.2047 7.75666C18.9758 7.53872 18.6917 7.38086 18.3801 7.29838C17.2102 7.00001 12.5072 7.00001 12.5072 7.00001C12.5072 7.00001 7.81305 6.99286 6.63096 7.29838C6.3198 7.38123 6.03631 7.53925 5.80788 7.75717C5.57945 7.97509 5.41381 8.24555 5.32697 8.5424C5.10481 9.68497 4.99539 10.8449 5.00015 12.0069C4.99798 13.1634 5.10738 14.3176 5.32697 15.4549C5.41409 15.7519 5.57978 16.0226 5.80813 16.2409C6.03648 16.4592 6.31983 16.6179 6.63096 16.7016C7.80086 17 12.5072 17 12.5072 17C12.5072 17 17.1984 17 18.3801 16.7016C18.6917 16.6182 18.9756 16.4598 19.2045 16.2414C19.4333 16.0231 19.5995 15.7522 19.6869 15.4549C19.9021 14.3183 20.0071 13.1624 19.9996 12.0069C20.0071 10.8439 19.9044 9.68621 19.6869 8.5424ZM11.0048 14.1483V9.85619L14.9196 12.0069L11.0048 14.1483Z" fill="#F8F9FB"/>
</svg>
