<svg width="24" height="24" viewBox="0 0 24 24" fill="none" xmlns="http://www.w3.org/2000/svg">
<path d="M12 15C12.7956 15 13.5587 14.6839 14.1213 14.1213C14.6839 13.5587 15 12.7956 15 12C15 11.2044 14.6839 10.4413 14.1213 9.87868C13.5587 9.31607 12.7956 9 12 9C11.2044 9 10.4413 9.31607 9.87868 9.87868C9.31607 10.4413 9 11.2044 9 12C9 12.7956 9.31607 13.5587 9.87868 14.1213C10.4413 14.6839 11.2044 15 12 15V15Z" stroke="#140E33" stroke-width="2" stroke-miterlimit="1.5" stroke-linecap="round" stroke-linejoin="round"/>
<path d="M13 9C13 9 14 7 14 5C14 3 12 1 12 1C12 1 10 3 10 5C10 7 11 9 11 9" stroke="#140E33" stroke-width="2" stroke-miterlimit="1.5" stroke-linecap="round" stroke-linejoin="round"/>
<path d="M9 11C9 11 7 10 5 10C3 10 1 12 1 12C1 12 3 14 5 14C7 14 9 13 9 13" stroke="#140E33" stroke-width="2" stroke-miterlimit="1.5" stroke-linecap="round" stroke-linejoin="round"/>
<path d="M13 15C13 15 14 17 14 19C14 21 12 23 12 23C12 23 10 21 10 19C10 17 11 15 11 15" stroke="#140E33" stroke-width="2" stroke-miterlimit="1.5" stroke-linecap="round" stroke-linejoin="round"/>
<path d="M15 11C15 11 17 10 19 10C21 10 23 12 23 12C23 12 21 14 19 14C17 14 15 13 15 13" stroke="#140E33" stroke-width="2" stroke-miterlimit="1.5" stroke-linecap="round" stroke-linejoin="round"/>
<path d="M10.5862 9.17192C10.5862 9.17192 9.87917 7.04992 8.46417 5.63592C7.05017 4.22192 4.22217 4.22192 4.22217 4.22192C4.22217 4.22192 4.22217 7.04992 5.63617 8.46492C7.05017 9.87892 9.17217 10.5859 9.17217 10.5859" stroke="#140E33" stroke-width="2" stroke-miterlimit="1.5" stroke-linecap="round" stroke-linejoin="round"/>
<path d="M9.17217 13.4141C9.17217 13.4141 7.05017 14.1211 5.63617 15.5361C4.22217 16.9501 4.22217 19.7781 4.22217 19.7781C4.22217 19.7781 7.05017 19.7781 8.46417 18.3641C9.87917 16.9501 10.5862 14.8281 10.5862 14.8281" stroke="#140E33" stroke-width="2" stroke-miterlimit="1.5" stroke-linecap="round" stroke-linejoin="round"/>
<path d="M14.8289 13.414C14.8289 13.414 16.9489 14.121 18.3639 15.536C19.7779 16.95 19.7779 19.778 19.7779 19.778C19.7779 19.778 16.9499 19.778 15.5359 18.364C14.1209 16.95 13.4139 14.828 13.4139 14.828" stroke="#140E33" stroke-width="2" stroke-miterlimit="1.5" stroke-linecap="round" stroke-linejoin="round"/>
<path d="M13.4139 9.17198C13.4139 9.17198 14.1209 7.04998 15.5359 5.63598C16.9499 4.22198 19.7779 4.22198 19.7779 4.22198C19.7779 4.22198 19.7779 7.04998 18.3639 8.46498C16.9499 9.87898 14.8279 10.586 14.8279 10.586" stroke="#140E33" stroke-width="2" stroke-miterlimit="1.5" stroke-linecap="round" stroke-linejoin="round"/>
</svg>
