<svg width="24" height="24" viewBox="0 0 24 24" fill="none" xmlns="http://www.w3.org/2000/svg">
<path d="M3 15C5.483 15 7.345 12 7.345 12C7.345 12 9.207 15 11.69 15C14.172 15 16.655 12 16.655 12C16.655 12 19.138 15 21 15" stroke="#140E33" stroke-width="2" stroke-linecap="round" stroke-linejoin="round"/>
<path d="M3 20C5.483 20 7.345 17 7.345 17C7.345 17 9.207 20 11.69 20C14.172 20 16.655 17 16.655 17C16.655 17 19.138 20 21 20" stroke="#140E33" stroke-width="2" stroke-linecap="round" stroke-linejoin="round"/>
<path d="M19 10C19 9.08075 18.8189 8.1705 18.4672 7.32122C18.1154 6.47194 17.5998 5.70026 16.9497 5.05025C16.2997 4.40024 15.5281 3.88463 14.6788 3.53284C13.8295 3.18106 12.9193 3 12 3C11.0807 3 10.1705 3.18106 9.32122 3.53284C8.47194 3.88463 7.70026 4.40024 7.05025 5.05025C6.40024 5.70026 5.88463 6.47194 5.53284 7.32122C5.18106 8.1705 5 9.08075 5 10" stroke="#140E33" stroke-width="2" stroke-linecap="round" stroke-linejoin="round"/>
</svg>
