<svg width="16" height="14" viewBox="0 0 16 14" fill="none" xmlns="http://www.w3.org/2000/svg">
<path d="M0.5 3.25L6.62369 7.53658C7.11957 7.8837 7.36751 8.05726 7.6372 8.12448C7.87542 8.18386 8.12458 8.18386 8.3628 8.12448C8.63249 8.05726 8.88043 7.8837 9.37631 7.53658L15.5 3.25M4.1 13H11.9C13.1601 13 13.7902 13 14.2715 12.7548C14.6948 12.539 15.039 12.1948 15.2548 11.7715C15.5 11.2902 15.5 10.6601 15.5 9.4V4.6C15.5 3.33988 15.5 2.70982 15.2548 2.22852C15.039 1.80516 14.6948 1.46095 14.2715 1.24524C13.7902 1 13.1601 1 11.9 1H4.1C2.83988 1 2.20982 1 1.72852 1.24524C1.30516 1.46095 0.96095 1.80516 0.745235 2.22852C0.5 2.70982 0.5 3.33988 0.5 4.6V9.4C0.5 10.6601 0.5 11.2902 0.745235 11.7715C0.96095 12.1948 1.30516 12.539 1.72852 12.7548C2.20982 13 2.83988 13 4.1 13Z" stroke="black" stroke-linecap="round" stroke-linejoin="round"/>
</svg>
