<svg width="16" height="16" viewBox="0 0 16 16" fill="none" xmlns="http://www.w3.org/2000/svg">
<path d="M5.28521 5.63992C5.80721 6.72714 6.5188 7.74612 7.41998 8.6473C8.32116 9.54849 9.34015 10.2601 10.4274 10.7821C10.5209 10.827 10.5676 10.8494 10.6268 10.8667C10.8371 10.928 11.0953 10.8839 11.2733 10.7564C11.3234 10.7206 11.3663 10.6777 11.452 10.5919C11.7143 10.3297 11.8454 10.1986 11.9772 10.1129C12.4744 9.78968 13.1153 9.78968 13.6125 10.1129C13.7443 10.1986 13.8754 10.3297 14.1376 10.592L14.2838 10.7381C14.6823 11.1367 14.8816 11.336 14.9899 11.55C15.2052 11.9757 15.2052 12.4784 14.9899 12.9041C14.8816 13.1181 14.6823 13.3174 14.2838 13.716L14.1655 13.8342C13.7683 14.2314 13.5697 14.43 13.2997 14.5817C13 14.75 12.5347 14.871 12.191 14.87C11.8813 14.8691 11.6696 14.809 11.2463 14.6889C8.97125 14.0431 6.82448 12.8248 5.0335 11.0338C3.24251 9.2428 2.02415 7.09603 1.37843 4.82098C1.25827 4.39765 1.19819 4.18598 1.19727 3.87627C1.19625 3.53261 1.31727 3.06724 1.48559 2.76761C1.63727 2.49758 1.83588 2.29898 2.2331 1.90176L2.35132 1.78353C2.74991 1.38495 2.9492 1.18566 3.16323 1.0774C3.5889 0.862098 4.0916 0.862098 4.51727 1.0774C4.73131 1.18566 4.9306 1.38495 5.32918 1.78353L5.47533 1.92968C5.73754 2.19189 5.86864 2.32299 5.95436 2.45482C6.2776 2.95199 6.2776 3.59293 5.95435 4.0901C5.86864 4.22193 5.73754 4.35303 5.47533 4.61524C5.3896 4.70097 5.34673 4.74384 5.31085 4.79395C5.18334 4.97202 5.13932 5.23021 5.20061 5.44048C5.21786 5.49965 5.24031 5.54641 5.28521 5.63992Z" stroke="black" stroke-linecap="round" stroke-linejoin="round"/>
</svg>
