<svg xmlns="http://www.w3.org/2000/svg" width="20" height="20" viewBox="0 0 20 20" fill="none">
<path d="M-9.94031 0.129395L29.7948 0.10489L29.807 19.9724L-9.92806 19.9969L-9.94031 0.129395Z" fill="#0098C3"/>
<path d="M-9.93622 6.75191L29.7989 6.72741L29.803 13.3499L-9.93214 13.3744L-9.93622 6.75191Z" fill="#FD5C63"/>
<path d="M-9.93214 13.3744L29.803 13.3499L29.807 19.9724L-9.92806 19.9969L-9.93214 13.3744Z" fill="#00AE65"/>
<path d="M9.30606 13.0314C10.9519 13.0304 12.2854 11.6953 12.2844 10.0495C12.2833 8.40358 10.9483 7.07016 9.30239 7.07117C7.65651 7.07219 6.32308 8.40726 6.32409 10.0531C6.32511 11.699 7.66018 13.0325 9.30606 13.0314Z" fill="white"/>
<path d="M9.9349 12.5344C11.3065 12.5335 12.4177 11.421 12.4168 10.0494C12.416 8.67782 11.3034 7.56663 9.93183 7.56747C8.56026 7.56832 7.44908 8.68088 7.44992 10.0524C7.45077 11.424 8.56333 12.5352 9.9349 12.5344Z" fill="#FD5C63"/>
<path d="M13.7877 11.2185L12.9333 10.8137L12.6177 11.7049L12.2998 10.8145L11.4464 11.2215L11.8512 10.3671L10.96 10.0515L11.8504 9.73357L11.4434 8.88018L12.2978 9.28495L12.6134 8.39363L12.9313 9.28403L13.7847 8.87702L13.3799 9.73144L14.2712 10.047L13.3808 10.3649L13.7877 11.2185Z" fill="white"/>
</svg>