<svg width="20" height="15" viewBox="0 0 20 15" fill="none" xmlns="http://www.w3.org/2000/svg">
<path d="M5.8335 5L10.0002 7.91667L14.1668 5" stroke="#140E33" stroke-width="2" stroke-linecap="round" stroke-linejoin="round"/>
<path d="M1.66675 11.6667V3.33332C1.66675 2.8913 1.84234 2.46737 2.1549 2.15481C2.46746 1.84225 2.89139 1.66666 3.33341 1.66666H16.6667C17.1088 1.66666 17.5327 1.84225 17.8453 2.15481C18.1578 2.46737 18.3334 2.8913 18.3334 3.33332V11.6667C18.3334 12.1087 18.1578 12.5326 17.8453 12.8452C17.5327 13.1577 17.1088 13.3333 16.6667 13.3333H3.33341C2.89139 13.3333 2.46746 13.1577 2.1549 12.8452C1.84234 12.5326 1.66675 12.1087 1.66675 11.6667Z" stroke="#140E33" stroke-width="2"/>
</svg>
