<svg width="20" height="16" viewBox="0 0 20 16" fill="none" xmlns="http://www.w3.org/2000/svg">
<path d="M13.3338 3.23322C13.3337 3.73465 13.1354 4.21572 12.7822 4.57155C11.9688 5.39155 11.1797 6.24655 10.3355 7.03655C10.2412 7.12241 10.1176 7.16881 9.99016 7.16618C9.8627 7.16354 9.74111 7.11207 9.65049 7.02239L7.21883 4.57239C6.86535 4.21632 6.66699 3.73494 6.66699 3.23322C6.66699 2.7315 6.86535 2.25012 7.21883 1.89405C7.3952 1.71637 7.605 1.57535 7.83612 1.47912C8.06725 1.38288 8.31513 1.33334 8.56549 1.33334C8.81585 1.33334 9.06374 1.38288 9.29486 1.47912C9.52599 1.57535 9.73578 1.71637 9.91216 1.89405L10.0005 1.98322L10.0888 1.89405C10.3536 1.62644 10.692 1.44366 11.0609 1.36899C11.4299 1.29432 11.8127 1.33113 12.1607 1.47473C12.5087 1.61833 12.806 1.86224 13.015 2.17539C13.2239 2.48854 13.3349 2.85678 13.3338 3.23322V3.23322Z" stroke="#363249" stroke-width="2" stroke-linejoin="round"/>
<path d="M15 14.6667L18.1867 11.48C18.2805 11.3863 18.3332 11.2592 18.3333 11.1267V6.75C18.3333 6.41848 18.2016 6.10054 17.9672 5.86612C17.7328 5.6317 17.4149 5.5 17.0833 5.5V5.5C16.7518 5.5 16.4339 5.6317 16.1995 5.86612C15.965 6.10054 15.8333 6.41848 15.8333 6.75V10.5" stroke="#363249" stroke-width="2" stroke-linecap="round" stroke-linejoin="round"/>
<path d="M15.0007 11.3331L15.7157 10.6181C15.7532 10.5806 15.783 10.536 15.8033 10.487C15.8236 10.4379 15.834 10.3854 15.834 10.3323C15.8339 10.2573 15.8129 10.1839 15.7735 10.1202C15.734 10.0565 15.6777 10.005 15.6107 9.97145L15.2415 9.78728C14.9287 9.63091 14.5747 9.57686 14.2295 9.63279C13.8844 9.68872 13.5655 9.85181 13.3182 10.099L12.5723 10.8448C12.2597 11.1573 12.0841 11.5811 12.084 12.0231V14.6665" stroke="#363249" stroke-width="2" stroke-linecap="round" stroke-linejoin="round"/>
<path d="M5.00033 14.6667L1.81366 11.48C1.71986 11.3863 1.66711 11.2592 1.66699 11.1267V6.75C1.66699 6.41848 1.79869 6.10054 2.03311 5.86612C2.26753 5.6317 2.58547 5.5 2.91699 5.5V5.5C3.24851 5.5 3.56646 5.6317 3.80088 5.86612C4.0353 6.10054 4.16699 6.41848 4.16699 6.75V10.5" stroke="#363249" stroke-width="2" stroke-linecap="round" stroke-linejoin="round"/>
<path d="M5.00033 11.3331L4.28533 10.6181C4.2478 10.5806 4.21803 10.536 4.19773 10.487C4.17742 10.4379 4.16698 10.3854 4.16699 10.3323V10.3323C4.16699 10.1798 4.25366 10.0406 4.39033 9.97145L4.75949 9.78728C5.07225 9.63091 5.42627 9.57686 5.77145 9.63279C6.11662 9.68872 6.43546 9.85181 6.68283 10.099L7.42866 10.8448C7.74124 11.1573 7.9169 11.5811 7.91699 12.0231V14.6665" stroke="#363249" stroke-width="2" stroke-linecap="round" stroke-linejoin="round"/>
</svg>
