<svg width="16" height="17" viewBox="0 0 16 17" fill="none" xmlns="http://www.w3.org/2000/svg">
<path d="M11.5 12L15 15.5" stroke="white" stroke-width="2" stroke-linecap="round" stroke-linejoin="round"/>
<path d="M1 7.5C1 8.28793 1.15519 9.06815 1.45672 9.7961C1.75825 10.5241 2.20021 11.1855 2.75736 11.7426C3.31451 12.2998 3.97595 12.7417 4.7039 13.0433C5.43185 13.3448 6.21207 13.5 7 13.5C7.78793 13.5 8.56815 13.3448 9.2961 13.0433C10.0241 12.7417 10.6855 12.2998 11.2426 11.7426C11.7998 11.1855 12.2417 10.5241 12.5433 9.7961C12.8448 9.06815 13 8.28793 13 7.5C13 5.9087 12.3679 4.38258 11.2426 3.25736C10.1174 2.13214 8.5913 1.5 7 1.5C5.4087 1.5 3.88258 2.13214 2.75736 3.25736C1.63214 4.38258 1 5.9087 1 7.5V7.5Z" stroke="white" stroke-width="2" stroke-linecap="round" stroke-linejoin="round"/>
</svg>
