<svg width="18" height="17" viewBox="0 0 18 17" fill="none" xmlns="http://www.w3.org/2000/svg">
<path d="M1.5 11.5C3.56917 11.5 5.12083 9 5.12083 9C5.12083 9 6.6725 11.5 8.74167 11.5C10.81 11.5 12.8792 9 12.8792 9C12.8792 9 14.9483 11.5 16.5 11.5" stroke="#363249" stroke-width="2" stroke-linecap="round" stroke-linejoin="round"/>
<path d="M1.5 15.6667C3.56917 15.6667 5.12083 13.1667 5.12083 13.1667C5.12083 13.1667 6.6725 15.6667 8.74167 15.6667C10.81 15.6667 12.8792 13.1667 12.8792 13.1667C12.8792 13.1667 14.9483 15.6667 16.5 15.6667" stroke="#363249" stroke-width="2" stroke-linecap="round" stroke-linejoin="round"/>
<path d="M3.1665 7.74995L6.49984 5.66661L5.51067 4.42995C5.42278 4.31998 5.35787 4.19348 5.31978 4.05797C5.28168 3.92245 5.27118 3.78066 5.2889 3.641C5.30662 3.50135 5.3522 3.36668 5.42293 3.24497C5.49366 3.12325 5.58811 3.01698 5.70067 2.93245C5.91626 2.77069 6.18576 2.69796 6.45346 2.72929C6.72116 2.76062 6.96659 2.89362 7.139 3.10078L10.6665 7.33328" stroke="#363249" stroke-width="2" stroke-linecap="round" stroke-linejoin="round"/>
<path d="M12.7498 5.66667C13.3024 5.66667 13.8323 5.44717 14.223 5.05647C14.6137 4.66577 14.8332 4.13587 14.8332 3.58333C14.8332 3.0308 14.6137 2.5009 14.223 2.11019C13.8323 1.71949 13.3024 1.5 12.7498 1.5C12.1973 1.5 11.6674 1.71949 11.2767 2.11019C10.886 2.5009 10.6665 3.0308 10.6665 3.58333C10.6665 4.13587 10.886 4.66577 11.2767 5.05647C11.6674 5.44717 12.1973 5.66667 12.7498 5.66667V5.66667Z" stroke="#363249" stroke-width="2" stroke-linecap="round" stroke-linejoin="round"/>
</svg>
