<svg width="22" height="22" viewBox="0 0 22 22" fill="none" xmlns="http://www.w3.org/2000/svg">
<path d="M18.5 21C18.8978 21 19.2794 20.842 19.5607 20.5607C19.842 20.2794 20 19.8978 20 19.5C20 19.1022 19.842 18.7206 19.5607 18.4393C19.2794 18.158 18.8978 18 18.5 18C18.1022 18 17.7206 18.158 17.4393 18.4393C17.158 18.7206 17 19.1022 17 19.5C17 19.8978 17.158 20.2794 17.4393 20.5607C17.7206 20.842 18.1022 21 18.5 21Z" fill="#140E33" stroke="#140E33" stroke-width="2" stroke-linecap="round" stroke-linejoin="round"/>
<path d="M8.5 21C8.89782 21 9.27936 20.842 9.56066 20.5607C9.84196 20.2794 10 19.8978 10 19.5C10 19.1022 9.84196 18.7206 9.56066 18.4393C9.27936 18.158 8.89782 18 8.5 18C8.10218 18 7.72064 18.158 7.43934 18.4393C7.15804 18.7206 7 19.1022 7 19.5C7 19.8978 7.15804 20.2794 7.43934 20.5607C7.72064 20.842 8.10218 21 8.5 21Z" fill="#140E33" stroke="#140E33" stroke-width="2" stroke-linecap="round" stroke-linejoin="round"/>
<path d="M4 3C3.833 2.333 3 1 1 1M4 3H21L19 14H6L4 3Z" stroke="#140E33" stroke-width="2" stroke-linecap="round" stroke-linejoin="round"/>
<path d="M19 14H4.23C2.446 14 1.5 14.781 1.5 16C1.5 17.219 2.446 18 4.23 18H18.5" stroke="#140E33" stroke-width="2" stroke-linecap="round" stroke-linejoin="round"/>
</svg>
