<svg width="28" height="21" viewBox="0 0 28 21" fill="none" xmlns="http://www.w3.org/2000/svg">
<path d="M7.75 14.25C8.08152 14.25 8.39946 14.1183 8.63388 13.8839C8.8683 13.6495 9 13.3315 9 13C9 12.6685 8.8683 12.3505 8.63388 12.1161C8.39946 11.8817 8.08152 11.75 7.75 11.75C7.41848 11.75 7.10054 11.8817 6.86612 12.1161C6.6317 12.3505 6.5 12.6685 6.5 13C6.5 13.3315 6.6317 13.6495 6.86612 13.8839C7.10054 14.1183 7.41848 14.25 7.75 14.25Z" fill="#140E33" stroke="#140E33" stroke-width="2" stroke-linecap="round" stroke-linejoin="round"/>
<path d="M1.5 6.75H26.5M1.5 6.75V2.5C1.5 2.30109 1.57902 2.11032 1.71967 1.96967C1.86032 1.82902 2.05109 1.75 2.25 1.75H25.75C25.9489 1.75 26.1397 1.82902 26.2803 1.96967C26.421 2.11032 26.5 2.30109 26.5 2.5V6.75H1.5ZM1.5 6.75V18.5C1.5 18.6989 1.57902 18.8897 1.71967 19.0303C1.86032 19.171 2.05109 19.25 2.25 19.25H25.75C25.9489 19.25 26.1397 19.171 26.2803 19.0303C26.421 18.8897 26.5 18.6989 26.5 18.5V6.75H1.5Z" stroke="#140E33" stroke-width="2" stroke-linecap="round" stroke-linejoin="round"/>
</svg>
