<svg width="19" height="14" viewBox="0 0 19 14" fill="none" xmlns="http://www.w3.org/2000/svg">
<path d="M1 4.3188C1.2432 4.08824 1.49578 3.86778 1.75708 3.65797C6.43208 -0.0941172 13.2425 0.1263 17.6667 4.3188" stroke="#363249" stroke-width="2" stroke-linecap="round" stroke-linejoin="round"/>
<path d="M15.1667 7.16625C11.945 3.94458 6.72167 3.94458 3.5 7.16625" stroke="#363249" stroke-width="2" stroke-linecap="round" stroke-linejoin="round"/>
<path d="M12.6667 9.88094C10.8258 8.03969 7.84083 8.03969 6 9.88094" stroke="#363249" stroke-width="2" stroke-linecap="round" stroke-linejoin="round"/>
<path fill-rule="evenodd" clip-rule="evenodd" d="M9.33317 13.0833C9.60944 13.0833 9.87439 12.9736 10.0697 12.7782C10.2651 12.5829 10.3748 12.3179 10.3748 12.0417C10.3748 11.7654 10.2651 11.5004 10.0697 11.3051C9.87439 11.1097 9.60944 11 9.33317 11C9.0569 11 8.79195 11.1097 8.5966 11.3051C8.40125 11.5004 8.2915 11.7654 8.2915 12.0417C8.2915 12.3179 8.40125 12.5829 8.5966 12.7782C8.79195 12.9736 9.0569 13.0833 9.33317 13.0833Z" fill="#363249"/>
</svg>
