<svg width="18" height="19" viewBox="0 0 18 19" fill="none" xmlns="http://www.w3.org/2000/svg">
<path d="M11.5 3.33335V1.66669V3.33335ZM11.5 3.33335V5.00002V3.33335ZM11.5 3.33335H7.75H11.5ZM1.5 8.33335V15.8334C1.5 16.2754 1.67559 16.6993 1.98816 17.0119C2.30072 17.3244 2.72464 17.5 3.16667 17.5H14.8333C15.2754 17.5 15.6993 17.3244 16.0118 17.0119C16.3244 16.6993 16.5 16.2754 16.5 15.8334V8.33335H1.5Z" stroke="#CA304D" stroke-width="2" stroke-linecap="round" stroke-linejoin="round"/>
<path d="M1.5 8.33337V5.00004C1.5 4.55801 1.67559 4.13409 1.98816 3.82153C2.30072 3.50897 2.72464 3.33337 3.16667 3.33337H4.83333" stroke="#CA304D" stroke-width="2" stroke-linecap="round" stroke-linejoin="round"/>
<path d="M4.8335 1.66669V5.00002" stroke="#CA304D" stroke-width="2" stroke-linecap="round" stroke-linejoin="round"/>
<path d="M16.4998 8.33337V5.00004C16.4998 4.55801 16.3242 4.13409 16.0117 3.82153C15.6991 3.50897 15.2752 3.33337 14.8332 3.33337H14.4165" stroke="#CA304D" stroke-width="2" stroke-linecap="round" stroke-linejoin="round"/>
</svg>
