<svg width="20" height="14" viewBox="0 0 20 14" fill="none" xmlns="http://www.w3.org/2000/svg">
<path d="M5.63336 4.5L9.80003 7.41667L13.9667 4.5" stroke="#140E33" stroke-width="2" stroke-linecap="round" stroke-linejoin="round"/>
<path d="M1.46667 11.1665V2.83317C1.46667 2.39114 1.64227 1.96722 1.95483 1.65466C2.26739 1.3421 2.69131 1.1665 3.13334 1.1665H16.4667C16.9087 1.1665 17.3326 1.3421 17.6452 1.65466C17.9577 1.96722 18.1333 2.39114 18.1333 2.83317V11.1665C18.1333 11.6085 17.9577 12.0325 17.6452 12.345C17.3326 12.6576 16.9087 12.8332 16.4667 12.8332H3.13334C2.69131 12.8332 2.26739 12.6576 1.95483 12.345C1.64227 12.0325 1.46667 11.6085 1.46667 11.1665Z" stroke="#140E33" stroke-width="2"/>
</svg>
