<svg width="20" height="20" viewBox="0 0 20 20" fill="none" xmlns="http://www.w3.org/2000/svg">
<path d="M5.83301 15V14.1667C5.83301 13.0616 6.27199 12.0018 7.0534 11.2204C7.8348 10.439 8.89461 10 9.99967 10C11.1047 10 12.1646 10.439 12.946 11.2204C13.7274 12.0018 14.1663 13.0616 14.1663 14.1667V15" stroke="#CA304D" stroke-width="2" stroke-linecap="round"/>
<path d="M10 10C10.663 10 11.2989 9.73661 11.7678 9.26777C12.2366 8.79893 12.5 8.16304 12.5 7.5C12.5 6.83696 12.2366 6.20107 11.7678 5.73223C11.2989 5.26339 10.663 5 10 5C9.33696 5 8.70107 5.26339 8.23223 5.73223C7.76339 6.20107 7.5 6.83696 7.5 7.5C7.5 8.16304 7.76339 8.79893 8.23223 9.26777C8.70107 9.73661 9.33696 10 10 10V10Z" stroke="#CA304D" stroke-width="2" stroke-linecap="round" stroke-linejoin="round"/>
<path d="M9.99984 18.3334C14.6022 18.3334 18.3332 14.6024 18.3332 10C18.3332 5.39765 14.6022 1.66669 9.99984 1.66669C5.39746 1.66669 1.6665 5.39765 1.6665 10C1.6665 14.6024 5.39746 18.3334 9.99984 18.3334Z" stroke="#CA304D" stroke-width="2"/>
</svg>
