<svg width="19" height="17" viewBox="0 0 19 17" fill="none" xmlns="http://www.w3.org/2000/svg">
<path d="M8.4107 1C7.08836 0.999867 5.79008 1.338 4.65056 1.9793C3.51104 2.62061 2.57181 3.54173 1.93032 4.64708C1.28883 5.75244 0.968462 7.00175 1.00245 8.26539C1.03644 9.52903 1.42354 10.761 2.1236 11.8333" stroke="#363249" stroke-width="2" stroke-linecap="round" stroke-linejoin="round"/>
<path d="M14.6978 11.8334C15.4336 10.7092 15.8227 9.40948 15.8206 8.08341V6.41675H18" stroke="#363249" stroke-width="2" stroke-linecap="round" stroke-linejoin="round"/>
<path d="M5.35972 16.0001C4.89731 16.0001 4.45384 15.8245 4.12687 15.5119C3.7999 15.1994 3.61621 14.7754 3.61621 14.3334C3.61621 13.8914 3.7999 13.4675 4.12687 13.1549C4.45384 12.8423 4.89731 12.6667 5.35972 12.6667C5.82213 12.6667 6.2656 12.8423 6.59257 13.1549C6.91954 13.4675 7.10323 13.8914 7.10323 14.3334C7.10323 14.7754 6.91954 15.1994 6.59257 15.5119C6.2656 15.8245 5.82213 16.0001 5.35972 16.0001Z" stroke="#363249" stroke-width="2" stroke-linecap="round" stroke-linejoin="round"/>
<path d="M11.4618 16.0001C10.9994 16.0001 10.556 15.8245 10.229 15.5119C9.90201 15.1994 9.71832 14.7754 9.71832 14.3334C9.71832 13.8914 9.90201 13.4675 10.229 13.1549C10.556 12.8423 10.9994 12.6667 11.4618 12.6667C11.9242 12.6667 12.3677 12.8423 12.6947 13.1549C13.0217 13.4675 13.2053 13.8914 13.2053 14.3334C13.2053 14.7754 13.0217 15.1994 12.6947 15.5119C12.3677 15.8245 11.9242 16.0001 11.4618 16.0001Z" stroke="#363249" stroke-width="2" stroke-linecap="round" stroke-linejoin="round"/>
<path d="M8.41071 1V8.5" stroke="#363249" stroke-width="2" stroke-linecap="round" stroke-linejoin="round"/>
<path d="M1.43652 8.5H15.3846" stroke="#363249" stroke-width="2" stroke-linecap="round" stroke-linejoin="round"/>
</svg>
