<svg width="20" height="21" viewBox="0 0 20 21" fill="none" xmlns="http://www.w3.org/2000/svg">
<path d="M15.8926 16.3925C14.7272 17.558 13.2423 18.3516 11.6258 18.6732C10.0093 18.9947 8.33377 18.8297 6.81105 18.199C5.28834 17.5682 3.98685 16.5001 3.07117 15.1297C2.15549 13.7593 1.66675 12.1481 1.66675 10.5C1.66675 8.85178 2.15549 7.24062 3.07117 5.87021C3.98685 4.4998 5.28833 3.43169 6.81105 2.80096C8.33377 2.17023 10.0093 2.00521 11.6258 2.32675C13.2423 2.64829 14.7272 3.44196 15.8926 4.6074" stroke="#140E33" stroke-width="1.5"/>
<path d="M7.5 10.5L6.91435 10.0315L6.53953 10.5L6.91435 10.9686L7.5 10.5ZM17.5 11.25C17.9142 11.25 18.25 10.9143 18.25 10.5C18.25 10.0858 17.9142 9.75004 17.5 9.75004V11.25ZM10.2477 5.86485L6.91435 10.0315L8.08565 10.9686L11.419 6.8019L10.2477 5.86485ZM6.91435 10.9686L10.2477 15.1352L11.419 14.1982L8.08565 10.0315L6.91435 10.9686ZM7.5 11.25H17.5V9.75004H7.5V11.25Z" fill="#140E33"/>
</svg>
