<svg width="15" height="15" viewBox="0 0 15 15" fill="none" xmlns="http://www.w3.org/2000/svg">
<path d="M5.36715 5.14746L6.9909 1.87746C7.03816 1.78283 7.11086 1.70323 7.20083 1.6476C7.2908 1.59197 7.39449 1.5625 7.50027 1.5625C7.60605 1.5625 7.70974 1.59197 7.79972 1.6476C7.88969 1.70323 7.96238 1.78283 8.00965 1.87746L9.6334 5.14746L13.2634 5.67496C13.3681 5.68948 13.4666 5.73315 13.5477 5.80097C13.6288 5.86879 13.6891 5.95805 13.7219 6.05854C13.7547 6.15904 13.7586 6.26672 13.7331 6.36931C13.7076 6.4719 13.6538 6.56525 13.5778 6.63871L10.9515 9.18246L11.5715 12.7762C11.6509 13.2375 11.1634 13.5887 10.7465 13.3712L7.50027 11.6737L4.2534 13.3712C3.83715 13.5893 3.34965 13.2375 3.42902 12.7756L4.04902 9.18184L1.42277 6.63809C1.34714 6.56457 1.29364 6.47131 1.26837 6.36891C1.2431 6.26651 1.24707 6.15907 1.27981 6.0588C1.31256 5.95854 1.37278 5.86948 1.45363 5.80173C1.53447 5.73399 1.6327 5.69029 1.73715 5.67559L5.36715 5.14746Z" fill="#F9DA5A" stroke="#F9DA5A" stroke-width="1.5" stroke-linecap="round" stroke-linejoin="round"/>
</svg>
