<svg width="21" height="21" viewBox="0 0 21 21" fill="none" xmlns="http://www.w3.org/2000/svg">
<path d="M17.8781 3.40755C16.957 2.48215 15.8602 1.74849 14.6514 1.24932C13.4427 0.750143 12.1463 0.495445 10.8377 0.500062C5.35423 0.500062 0.885372 4.94755 0.880349 10.4075C0.880349 12.1563 1.33992 13.8575 2.20757 15.3638L0.799988 20.5L6.07874 19.1225C7.53907 19.9136 9.17509 20.3283 10.8377 20.3287H10.8427C16.3274 20.3287 20.795 15.8813 20.8 10.4163C20.8012 9.11384 20.5436 7.82402 20.0419 6.62114C19.5402 5.41826 18.8044 4.32609 17.8768 3.40755H17.8781ZM10.8377 18.6513C9.35473 18.6518 7.89906 18.2545 6.62369 17.5013L6.32234 17.3213L3.19075 18.1388L4.02701 15.0975L3.83113 14.7838C3.00216 13.4717 2.56373 11.9526 2.56669 10.4025C2.56669 5.87004 6.27964 2.17256 10.8427 2.17256C11.9297 2.17062 13.0064 2.3829 14.0107 2.79717C15.015 3.21144 15.9269 3.8195 16.694 4.5863C17.4638 5.35011 18.074 6.25807 18.4895 7.25783C18.905 8.25758 19.1176 9.32934 19.1149 10.4113C19.1099 14.96 15.3969 18.6513 10.8377 18.6513ZM15.3768 12.4838C15.1295 12.36 13.9077 11.7613 13.6779 11.6763C13.4494 11.595 13.2824 11.5525 13.1192 11.8C12.9522 12.0463 12.475 12.6075 12.3319 12.7688C12.1887 12.935 12.0406 12.9538 11.7919 12.8313C11.5446 12.7063 10.7422 12.4463 9.79295 11.6C9.05212 10.9438 8.55614 10.1313 8.40797 9.88503C8.26483 9.63753 8.39416 9.50503 8.51847 9.38128C8.62771 9.27128 8.76583 9.09128 8.89014 8.94878C9.01571 8.80628 9.05714 8.70129 9.13876 8.53629C9.22038 8.36879 9.18145 8.22629 9.11992 8.10254C9.05714 7.97879 8.56116 6.75754 8.35147 6.26504C8.15056 5.77879 7.94589 5.84629 7.7927 5.84004C7.64956 5.83129 7.48256 5.83129 7.31556 5.83129C7.18944 5.83441 7.06534 5.86345 6.95103 5.91658C6.83673 5.96971 6.73469 6.04579 6.65132 6.14004C6.42279 6.38754 5.78366 6.98629 5.78366 8.20754C5.78366 9.42878 6.67517 10.6025 6.80074 10.7688C6.92379 10.935 8.55112 13.4338 11.0486 14.5088C11.6388 14.765 12.1033 14.9163 12.4662 15.0313C13.0627 15.2213 13.6013 15.1925 14.0308 15.1313C14.5079 15.0588 15.5011 14.5313 15.7108 13.9525C15.9168 13.3725 15.9168 12.8775 15.854 12.7738C15.7924 12.6688 15.6254 12.6075 15.3768 12.4838Z" fill="#140E33"/>
</svg>
