<svg xmlns="http://www.w3.org/2000/svg" width="20" height="18" viewBox="0 0 20 18" fill="none">
<path fill-rule="evenodd" clip-rule="evenodd" d="M5.62467 12.3333C5.90094 12.3333 6.16589 12.2236 6.36124 12.0282C6.55659 11.8329 6.66634 11.5679 6.66634 11.2917C6.66634 11.0154 6.55659 10.7504 6.36124 10.5551C6.16589 10.3597 5.90094 10.25 5.62467 10.25C5.34841 10.25 5.08346 10.3597 4.8881 10.5551C4.69275 10.7504 4.58301 11.0154 4.58301 11.2917C4.58301 11.5679 4.69275 11.8329 4.8881 12.0282C5.08346 12.2236 5.34841 12.3333 5.62467 12.3333Z" fill="#363249"/>
<path fill-rule="evenodd" clip-rule="evenodd" d="M14.3747 12.3333C14.6509 12.3333 14.9159 12.2236 15.1112 12.0282C15.3066 11.8329 15.4163 11.5679 15.4163 11.2917C15.4163 11.0154 15.3066 10.7504 15.1112 10.5551C14.9159 10.3597 14.6509 10.25 14.3747 10.25C14.0984 10.25 13.8335 10.3597 13.6381 10.5551C13.4428 10.7504 13.333 11.0154 13.333 11.2917C13.333 11.5679 13.4428 11.8329 13.6381 12.0282C13.8335 12.2236 14.0984 12.3333 14.3747 12.3333Z" fill="#363249"/>
<path d="M2.9165 14.4167C2.58498 14.4167 2.26704 14.285 2.03262 14.0506C1.7982 13.8161 1.6665 13.4982 1.6665 13.1667V9.29583C1.66648 8.83135 1.79586 8.37605 2.04012 7.98098C2.28439 7.58592 2.63389 7.26671 3.04942 7.05917L3.33359 6.9175L4.29609 2.78833C4.38147 2.42201 4.58826 2.09534 4.88284 1.86143C5.17741 1.62753 5.54244 1.50015 5.91859 1.5H14.1219C14.5008 1.49998 14.8684 1.62907 15.1641 1.866C15.4598 2.10292 15.666 2.43354 15.7486 2.80333L16.6673 6.91708L16.9507 7.05875C17.3661 7.26635 17.7155 7.58558 17.9597 7.98064C18.2039 8.37571 18.3332 8.83098 18.3332 9.29542V13.1667C18.3332 13.4982 18.2015 13.8161 17.9671 14.0506C17.7326 14.285 17.4147 14.4167 17.0832 14.4167H16.2511V14.8333C16.2511 15.2755 16.0754 15.6996 15.7627 16.0123C15.4501 16.325 15.026 16.5006 14.5838 16.5006C14.1416 16.5006 13.7175 16.325 13.4048 16.0123C13.0922 15.6996 12.9165 15.2755 12.9165 14.8333V14.4167H7.08317V14.8333C7.08317 15.2754 6.90758 15.6993 6.59502 16.0118C6.28245 16.3244 5.85853 16.5 5.4165 16.5C4.97448 16.5 4.55055 16.3244 4.23799 16.0118C3.92543 15.6993 3.74984 15.2754 3.74984 14.8333V14.4167H2.9165Z" stroke="#363249" stroke-width="2" stroke-linejoin="round"/>
<path d="M5.83301 8.16675H14.1663L13.478 5.06925C13.4369 4.8842 13.3339 4.7187 13.186 4.60007C13.0381 4.48145 12.8542 4.41678 12.6647 4.41675H7.33467C7.1451 4.41678 6.96121 4.48145 6.81335 4.60007C6.66548 4.7187 6.56248 4.8842 6.52134 5.06925L5.83301 8.16675Z" stroke="#363249" stroke-width="2" stroke-linejoin="round"/>
</svg>