<svg width="59" height="45" viewBox="0 0 59 45" fill="none" xmlns="http://www.w3.org/2000/svg">
<path d="M48.9564 37.9031C48.9564 38.5823 48.4982 39.071 47.8387 39.071C47.1595 39.071 46.7211 38.5517 46.7211 37.9031C46.7211 37.2544 47.1595 36.7351 47.8387 36.7351C48.4982 36.7351 48.9564 37.2544 48.9564 37.9031ZM17.9298 36.7351C17.22 36.7351 16.8121 37.2544 16.8121 37.9031C16.8121 38.5517 17.2218 39.071 17.9298 39.071C18.5784 39.071 19.0169 38.5823 19.0169 37.9031C19.0061 37.2544 18.5784 36.7351 17.9298 36.7351ZM29.6598 36.7063C29.1207 36.7063 28.7901 37.0549 28.711 37.5742H30.6175C30.5277 37.0046 30.1791 36.7063 29.6598 36.7063ZM40.4212 36.7351C39.742 36.7351 39.3341 37.2544 39.3341 37.9031C39.3341 38.5517 39.7438 39.071 40.4212 39.071C41.1005 39.071 41.5389 38.5823 41.5389 37.9031C41.5389 37.2544 41.0987 36.7351 40.4212 36.7351ZM50.9923 39.3406C50.9923 39.3711 51.0228 39.3909 51.0228 39.4502C51.0228 39.4807 50.9923 39.5005 50.9923 39.5598C50.9617 39.5903 50.9617 39.6101 50.942 39.6389C50.9114 39.6694 50.8916 39.6892 50.8323 39.6892C50.8018 39.7197 50.782 39.7197 50.7227 39.7197C50.6922 39.7197 50.6724 39.7197 50.6131 39.6892C50.5826 39.6892 50.5628 39.6586 50.5341 39.6389C50.5035 39.6083 50.4837 39.5885 50.4837 39.5598C50.4532 39.5095 50.4532 39.4807 50.4532 39.4502C50.4532 39.3999 50.4532 39.3711 50.4837 39.3406C50.4837 39.2903 50.5143 39.2615 50.5341 39.231C50.5646 39.2004 50.5844 39.2004 50.6131 39.1806C50.6634 39.1501 50.6922 39.1501 50.7227 39.1501C50.773 39.1501 50.8018 39.1501 50.8323 39.1806C50.8827 39.2094 50.9114 39.2094 50.942 39.231C50.9725 39.2525 50.9617 39.2903 50.9923 39.3406ZM50.773 39.4807C50.8234 39.4807 50.8234 39.4502 50.8521 39.4502C50.8827 39.4196 50.8827 39.3999 50.8827 39.3711C50.8827 39.3424 50.8827 39.3208 50.8521 39.2921C50.8234 39.2921 50.8018 39.2615 50.7425 39.2615H50.5826V39.6101H50.6616V39.4699H50.6922L50.8018 39.6101H50.8809L50.773 39.4807ZM58.2498 5.03103V40.1707C58.2494 41.4416 57.7443 42.6602 56.8457 43.5588C55.9471 44.4575 54.7284 44.9625 53.4576 44.963H5.54031C4.26947 44.9625 3.05082 44.4575 2.15219 43.5588C1.25357 42.6602 0.748523 41.4416 0.748047 40.1707V5.03103C0.748523 3.76019 1.25357 2.54154 2.15219 1.64292C3.05082 0.744296 4.26947 0.239246 5.54031 0.23877H53.4576C54.7284 0.239246 55.9471 0.744296 56.8457 1.64292C57.7443 2.54154 58.2494 3.76019 58.2498 5.03103ZM7.13953 18.9658C7.13953 26.6025 13.3388 32.791 20.9647 32.791C23.6805 32.7832 26.3349 31.9819 28.6014 30.4856C21.3241 24.5667 21.3744 13.3955 28.6014 7.47479C26.3371 5.97373 23.6813 5.17198 20.9647 5.16939C13.3388 5.16041 7.13953 11.3578 7.13953 18.9658ZM29.4998 29.8279C36.5382 24.3367 36.5077 13.6363 29.4998 8.11627C22.492 13.6363 22.4615 24.3474 29.4998 29.8279ZM15.2938 37.4449C15.2938 36.577 14.7241 36.0074 13.8257 35.9768C13.3657 35.9768 12.877 36.117 12.5481 36.6255C12.3091 36.2158 11.8995 35.9768 11.3298 35.9768C11.1229 35.9736 10.9182 36.0211 10.7338 36.115C10.5493 36.209 10.3906 36.3466 10.2715 36.5159V36.0774H9.45391V39.7413H10.2715C10.2715 37.8546 10.0217 36.7261 11.1699 36.7261C12.1887 36.7261 11.9893 37.7449 11.9893 39.7413H12.7781C12.7781 37.9138 12.5284 36.7261 13.6766 36.7261C14.6954 36.7261 14.4941 37.7252 14.4941 39.7413H15.3135V37.4449H15.2938ZM19.777 36.0774H18.9881V36.5159C18.8485 36.3417 18.6703 36.2023 18.4676 36.1088C18.2649 36.0153 18.0433 35.9701 17.8202 35.9768C16.7923 35.9768 16.0035 36.7962 16.0035 37.9031C16.0035 39.0207 16.7923 39.8293 17.8202 39.8293C18.3395 39.8293 18.7186 39.6389 18.9881 39.2903V39.7503H19.777V36.0774ZM23.8199 38.6326C23.8199 37.1358 21.5343 37.8132 21.5343 37.1142C21.5343 36.5446 22.722 36.6363 23.3815 37.0046L23.7103 36.356C22.7723 35.7468 20.6952 35.7576 20.6952 37.1753C20.6952 38.6021 22.9808 38.0037 22.9808 38.6721C22.9808 39.301 21.6331 39.2507 20.9144 38.7512L20.5658 39.3801C21.6834 40.1384 23.8199 39.9785 23.8199 38.6308V38.6326ZM27.3544 39.5598L27.1352 38.8806C26.756 39.089 25.9169 39.319 25.9169 38.4709V36.8142H27.225V36.0756H25.9169V34.958H25.0975V36.0756H24.3392V36.8052H25.0975V38.4727C25.0975 40.23 26.8243 39.9102 27.3544 39.5598ZM28.6805 38.2229H31.4261C31.4261 36.6057 30.6876 35.966 29.6885 35.966C28.6302 35.966 27.8719 36.7549 27.8719 37.8923C27.8719 39.9389 30.1287 40.2785 31.2464 39.31L30.8673 38.7117C30.0892 39.3513 28.9105 39.2903 28.6805 38.2229ZM34.5814 36.0774C34.1232 35.878 33.4242 35.8978 33.0648 36.5159V36.0774H32.2455V39.7413H33.0648V37.6749C33.0648 36.5159 34.0136 36.6668 34.3424 36.8357L34.5814 36.0774ZM35.6398 37.9031C35.6398 36.7639 36.7987 36.3955 37.7062 37.0639L38.0853 36.4153C36.9263 35.5078 34.8204 36.0056 34.8204 37.9121C34.8204 39.8886 37.0557 40.2875 38.0853 39.4089L37.7062 38.7602C36.788 39.4089 35.6398 39.0207 35.6398 37.9013V37.9031ZM42.2972 36.0774H41.4778V36.5159C40.6495 35.418 38.4932 36.0379 38.4932 37.9031C38.4932 39.8203 40.7285 40.3684 41.4778 39.2903V39.7503H42.2972V36.0774ZM45.6609 36.0774C45.422 35.9571 44.563 35.7881 44.1444 36.5159V36.0774H43.3555V39.7413H44.1444V37.6749C44.1444 36.577 45.0428 36.6471 45.422 36.8357L45.6609 36.0774ZM49.6841 34.5896H48.8953V36.5159C48.0759 35.4288 45.9107 36.0074 45.9107 37.9031C45.9107 39.8401 48.1568 40.3576 48.8953 39.2903V39.7503H49.6841V34.5896ZM50.4442 27.0931V27.5531H50.5233V27.0931H50.712V27.014H50.252V27.0931H50.4442ZM51.1019 39.4502C51.1019 39.3999 51.1019 39.3406 51.0731 39.2903C51.0426 39.2597 51.0228 39.2112 50.9941 39.1806C50.9653 39.1501 50.915 39.1303 50.8844 39.1016C50.8341 39.1016 50.7748 39.071 50.7245 39.071C50.694 39.071 50.6455 39.1016 50.5844 39.1016C50.545 39.1237 50.5082 39.1502 50.4748 39.1806C50.4245 39.2094 50.3957 39.2597 50.3957 39.2903C50.3652 39.3406 50.3652 39.3999 50.3652 39.4502C50.3652 39.4807 50.3652 39.5292 50.3957 39.5903C50.3957 39.6209 50.4263 39.6694 50.4748 39.6999C50.5051 39.734 50.5425 39.761 50.5844 39.779C50.6347 39.8078 50.694 39.8078 50.7245 39.8078C50.7748 39.8078 50.8341 39.8078 50.8844 39.779C50.915 39.7485 50.9635 39.7287 50.9941 39.6999C51.0246 39.6712 51.0444 39.6209 51.0731 39.5903C51.1019 39.531 51.1019 39.4807 51.1019 39.4502ZM51.4217 27.0032H51.2816L51.1216 27.3518L50.9617 27.0032H50.8216V27.5423H50.9006V27.1326L51.0605 27.4812H51.1702L51.3103 27.1326V27.5423H51.4199L51.4217 27.0032ZM51.8602 18.9658C51.8602 11.3578 45.6609 5.16041 38.035 5.16041C35.319 5.16722 32.6644 5.96861 30.3983 7.4658C37.5966 13.3865 37.7062 24.5864 30.3983 30.4766C32.6638 31.975 35.3188 32.7765 38.035 32.782C45.6609 32.7928 51.8602 26.6025 51.8602 18.9658Z" fill="#140E33"/>
</svg>
