<svg width="25" height="24" viewBox="0 0 25 24" fill="none" xmlns="http://www.w3.org/2000/svg">
<path d="M24.3226 7.08371C24.3092 6.076 24.1202 5.07831 23.7642 4.13527C23.4555 3.33982 22.9839 2.61741 22.3797 2.01419C21.7755 1.41097 21.0519 0.940216 20.2551 0.631999C19.3226 0.282546 18.3375 0.0935908 17.3417 0.0731789C16.0596 0.0159664 15.6531 0 12.3986 0C9.14402 0 8.72687 8.92186e-08 7.4541 0.0731789C6.45876 0.0937409 5.47411 0.282694 4.54206 0.631999C3.74516 0.940001 3.02143 1.41068 2.41718 2.01393C1.81293 2.61717 1.34147 3.33969 1.03295 4.13527C0.682218 5.06548 0.493358 6.04871 0.474536 7.04247C0.417228 8.32376 0.399902 8.72957 0.399902 11.9787C0.399902 15.2279 0.399902 15.643 0.474536 16.915C0.494527 17.9102 0.682443 18.8921 1.03295 19.8248C1.34199 20.6202 1.8138 21.3424 2.41825 21.9454C3.0227 22.5484 3.7465 23.0188 4.54339 23.3268C5.47289 23.6903 6.45771 23.8927 7.45543 23.9255C8.73886 23.9827 9.14535 24 12.3999 24C15.6545 24 16.0716 24 17.3444 23.9255C18.3401 23.9059 19.3253 23.7174 20.2577 23.368C21.0543 23.0594 21.7777 22.5885 22.3819 21.9854C22.9861 21.3822 23.4578 20.66 23.7669 19.8647C24.1174 18.9334 24.3053 17.9514 24.3253 16.9549C24.3826 15.6749 24.3999 15.2691 24.3999 12.0186C24.3972 8.76949 24.3972 8.35703 24.3226 7.08371ZM12.3906 18.1231C8.98675 18.1231 6.22931 15.3702 6.22931 11.9721C6.22931 8.5739 8.98675 5.82104 12.3906 5.82104C14.0246 5.82104 15.5918 6.4691 16.7472 7.62264C17.9027 8.77618 18.5518 10.3407 18.5518 11.9721C18.5518 13.6034 17.9027 15.1679 16.7472 16.3215C15.5918 17.475 14.0246 18.1231 12.3906 18.1231ZM18.7971 7.02783C18.6083 7.02801 18.4214 6.99103 18.2471 6.91901C18.0727 6.84699 17.9142 6.74135 17.7808 6.60812C17.6473 6.4749 17.5415 6.31671 17.4694 6.14262C17.3972 5.96852 17.3602 5.78193 17.3604 5.59353C17.3604 5.40526 17.3975 5.21883 17.4697 5.0449C17.5418 4.87096 17.6476 4.71291 17.781 4.57979C17.9143 4.44666 18.0726 4.34106 18.2468 4.26901C18.4211 4.19697 18.6078 4.15989 18.7964 4.15989C18.985 4.15989 19.1717 4.19697 19.3459 4.26901C19.5202 4.34106 19.6785 4.44666 19.8118 4.57979C19.9452 4.71291 20.0509 4.87096 20.1231 5.0449C20.1953 5.21883 20.2324 5.40526 20.2324 5.59353C20.2324 6.38652 19.59 7.02783 18.7971 7.02783Z" fill="#140E33"/>
</svg>
