<svg width="15" height="15" viewBox="0 0 15 15" fill="none" xmlns="http://www.w3.org/2000/svg">
<path d="M5.36687 5.14746L6.99062 1.87746C7.03789 1.78283 7.11058 1.70323 7.20055 1.6476C7.29053 1.59197 7.39422 1.5625 7.5 1.5625C7.60578 1.5625 7.70947 1.59197 7.79944 1.6476C7.88941 1.70323 7.96211 1.78283 8.00937 1.87746L9.63312 5.14746L13.2631 5.67496C13.3678 5.68948 13.4663 5.73315 13.5474 5.80097C13.6285 5.86879 13.6889 5.95805 13.7216 6.05854C13.7544 6.15904 13.7583 6.26672 13.7328 6.36931C13.7073 6.4719 13.6535 6.56525 13.5775 6.63871L10.9512 9.18246L11.5712 12.7762C11.6506 13.2375 11.1631 13.5887 10.7462 13.3712L7.5 11.6737L4.25312 13.3712C3.83687 13.5893 3.34937 13.2375 3.42875 12.7756L4.04875 9.18184L1.4225 6.63809C1.34686 6.56457 1.29337 6.47131 1.2681 6.36891C1.24283 6.26651 1.24679 6.15907 1.27954 6.0588C1.31229 5.95854 1.37251 5.86948 1.45335 5.80173C1.5342 5.73399 1.63242 5.69029 1.73687 5.67559L5.36687 5.14746Z" fill="#F9DA5A" stroke="#F9DA5A" stroke-width="1.5" stroke-linecap="round" stroke-linejoin="round"/>
</svg>
