<svg width="57" height="45" viewBox="0 0 57 45" fill="none" xmlns="http://www.w3.org/2000/svg">
<path d="M46.2841 20.0195C46.2841 20.0195 47.0259 23.7565 47.1929 24.5394H43.9322L45.4949 20.1695C45.4755 20.2003 45.8165 19.2547 46.0117 18.6726L46.2841 20.0195ZM56.625 4.82182V40.1782C56.6245 41.4569 56.1305 42.683 55.2514 43.5872C54.3724 44.4914 53.1802 44.9995 51.9371 45H5.06294C3.81976 44.9995 2.62764 44.4914 1.74858 43.5872C0.869522 42.683 0.375466 41.4569 0.375 40.1782V4.82182C0.375466 3.54314 0.869522 2.31697 1.74858 1.41281C2.62764 0.508645 3.81976 0.000479175 5.06294 0H51.9371C53.1802 0.000479175 54.3724 0.508645 55.2514 1.41281C56.1305 2.31697 56.6245 3.54314 56.625 4.82182ZM15.2685 30.0536L21.44 14.4654H17.2899L13.4527 25.1125L13.0326 22.9538L11.6651 15.7816C11.4401 14.7873 10.7475 14.5052 9.88798 14.4654H3.5706L3.50205 14.7764C4.94882 15.1415 6.3366 15.72 7.62223 16.494L11.1184 30.0536H15.2685ZM24.4879 30.0735L26.9488 14.4654H23.0237L20.5734 30.0735H24.4879ZM38.1492 24.9715C38.1685 23.1943 37.1139 21.8383 34.8587 20.7228C33.4824 20.0086 32.6422 19.5277 32.6422 18.7937C32.6615 18.1302 33.3558 17.4468 34.8974 17.4468C35.9014 17.4176 36.8991 17.6203 37.817 18.0398L38.1685 18.2097L38.7064 14.8343C37.5843 14.3924 36.3925 14.1675 35.1909 14.1708C31.3133 14.1708 28.5888 16.3005 28.5694 19.3325C28.5395 21.5725 30.5223 22.8182 32.0076 23.5703C33.521 24.3333 34.0396 24.8359 34.0396 25.5084C34.0202 26.5534 32.8091 27.0343 31.6859 27.0343C30.1233 27.0343 29.2831 26.783 28.0034 26.2009L27.4867 25.9496L26.94 29.4552C27.8575 29.8873 29.5573 30.2688 31.315 30.2887C35.4352 30.2977 38.1211 28.1987 38.151 24.9661L38.1492 24.9715ZM51.9371 30.0735L48.7731 14.4654H45.7357C44.7988 14.4654 44.0852 14.7475 43.6844 15.7618L37.8539 30.0753H41.9741C41.9741 30.0753 42.6473 28.1462 42.795 27.7358H47.8345C47.9522 28.2891 48.3038 30.0753 48.3038 30.0753L51.9371 30.0735Z" fill="#140E33"/>
</svg>
